<?xml version="1.0" encoding="UTF-8"?>
<svg id="Layer_1" data-name="Layer 1" xmlns="http://www.w3.org/2000/svg" viewBox="0 0 1004.87 1004.89">
  <defs>
    <style>
      .cls-1 {
        fill: #80c0fe;
        stroke-width: 0px;
      }
    </style>
  </defs>
  <path class="cls-1" d="M502.42,0c277.46.03,502.75,224.89,502.45,503.07-.29,277.19-225.25,502.44-503.7,501.82C224.52,1004.27-.53,779.71,0,501.4.53,224.43,225.09.09,502.42,0ZM85.38,526.73c8.21,114.08,54.12,212.09,141.63,288.97,87.48,76.86,190.48,111.27,306.56,102.75,113.36-8.32,208.42-56.15,283.11-141.67,76.22-87.26,110.29-189.97,101.76-305.52-8.36-113.25-56.09-208.24-141.51-282.9-87.25-76.27-189.92-110.4-305.5-101.93-113.39,8.31-208.35,56.2-283.22,141.59-74.23,84.66-107.07,184.5-102.85,298.71Z"/>
  <path class="cls-1" d="M237.83,693.14c-12.56-.39-23.62-4.5-32.11-13.97-6.21-6.93-9.82-15.14-10.84-24.58-1.3-12.04,1.71-22.66,9.12-32.11,1.55-1.98,3.08-4.01,4.85-5.78,27.09-27.15,54.21-54.25,81.33-81.37,60.1-60.1,120.18-120.2,180.29-180.28,18.56-18.55,37.21-37,55.76-55.56,30.24-30.26,60.4-60.6,90.67-90.83,6.99-6.98,15.26-12.06,25.16-13.53,12.03-1.79,23.23.41,33.34,7.78,9.24,6.73,14.44,15.56,16.8,26.68,2.35,11.05.11,21-5.07,30.62-2.19,4.06-5.21,7.51-8.46,10.75-135.97,135.98-271.96,271.95-407.9,407.97-7.66,7.67-16.82,12.14-27.28,14.18-1.82.36-3.77.05-5.66.05Z"/>
  <path class="cls-1" d="M312.24,767.44c-.07-13.09,5.16-23.82,14.35-32.96,12.5-12.43,25.12-24.74,37.36-37.44,6.59-6.83,13.55-13.3,20.26-20.02,6.9-6.9,13.65-13.95,20.54-20.86,5.42-5.44,10.98-10.74,16.4-16.16,8.33-8.33,16.58-16.75,24.92-25.08,6.78-6.77,13.66-13.43,20.44-20.18,7.53-7.49,14.98-15.06,22.49-22.57,6.29-6.3,12.65-12.53,18.92-18.84,6.81-6.85,13.48-13.85,20.36-20.62,5.49-5.4,10.95-10.83,16.35-16.32,7.08-7.19,14.32-14.22,21.47-21.34,6.46-6.42,12.91-12.84,19.33-19.3,11.41-11.48,22.75-23.03,34.19-34.47,9.25-9.25,18.66-18.34,27.91-27.6,11.91-11.93,23.67-24.02,35.61-35.92,8.71-8.68,17.51-17.25,26.09-26.07,8.96-9.21,18.27-18.08,27.44-27.08,5.63-5.53,12.25-9.38,19.96-11.11,16.16-3.64,30.45.17,42.14,11.89,7.19,7.21,10.78,16.31,11.79,26.55.74,7.55-.74,14.58-3.45,21.46-2.2,5.57-5.91,10.17-10.07,14.33-136.36,136.43-272.77,272.81-409.15,409.22-7.05,7.05-15.4,11.77-25.21,13.4-6.35,1.05-12.68.38-19.05-1.32-7.19-1.92-13.27-5.5-18.49-10.46-6.13-5.82-10.01-13.02-11.83-21.41-.7-3.25-1.11-6.43-1.07-9.73Z"/>
  <path class="cls-1" d="M148.99,459.86c.56-11.85,4.31-22.33,12.88-30.9,88.11-88.07,176.22-176.13,264.22-264.31,7.71-7.72,16.28-13.22,27.11-15.02,5.24-.88,10.33-.6,15.56.5,8.47,1.77,15.86,5.6,21.82,11.63,6.96,7.03,11.12,15.59,12.21,25.68,1.59,14.6-3.13,26.74-13.34,36.96-88.48,88.5-176.98,176.98-265.46,265.49-7.31,7.31-16.02,11.61-26.28,12.89-14.23,1.79-26.32-2.85-36.45-12.58-6.62-6.37-9.98-14.62-11.69-23.6-.43-2.24-.54-4.45-.58-6.73Z"/>
  <path class="cls-1" d="M502.12,812.92c.32-10.86,3.48-20.59,10.82-28.9,2.94-3.33,6.05-6.48,9.17-9.61,86.08-86.11,172.17-172.22,258.31-258.28,4.83-4.83,10.28-9.08,16.87-11.22,8.81-2.86,17.69-3.77,26.93-1.19,7.31,2.04,13.65,5.57,19,10.64,6.49,6.16,10.25,13.92,12.12,22.79,2.75,13.07-.85,24.44-8.16,35.04-.48.69-1.14,1.26-1.74,1.86-90.3,90.3-180.59,180.61-270.92,270.89-5.55,5.55-12.47,8.64-20.09,10.28-15.43,3.31-28.72-1.28-39.81-11.8-6.8-6.45-10.83-14.78-11.95-24.34-.24-2.05-.51-4.08-.52-6.15Z"/>
</svg>