<?xml version="1.0" encoding="UTF-8"?>
<!DOCTYPE svg PUBLIC "-//W3C//DTD SVG 1.1//EN" "http://www.w3.org/Graphics/SVG/1.1/DTD/svg11.dtd">
<svg xmlns="http://www.w3.org/2000/svg" version="1.1" viewBox="0 0 1920 1920" style="shape-rendering:geometricPrecision; text-rendering:geometricPrecision; image-rendering:optimizeQuality; fill-rule:evenodd; clip-rule:evenodd">
<g><path style="opacity:0.995" fill="#ffffff" d="M 916.5,72.5 C 1160.22,64.6631 1372.88,140.83 1554.5,301C 1721.81,455.461 1817.65,646.628 1842,874.5C 1861.91,1118.36 1795.57,1335.03 1643,1524.5C 1475.22,1721.47 1261.39,1828.31 1001.5,1845C 757.763,1853.33 545.096,1777.33 363.5,1617C 207.916,1473.71 113.75,1296.87 81,1086.5C 49.7735,847.409 103.774,630.075 243,434.5C 389.299,240.197 583.132,122.697 824.5,82C 855.203,77.6968 885.87,74.5301 916.5,72.5 Z"/></g>
<g><path style="opacity:1" fill="#121317" d="M 928.5,222.5 C 1159.41,218.086 1352.91,300.086 1509,468.5C 1642.85,623.037 1704.52,803.037 1694,1008.5C 1677.2,1211.93 1593.03,1381.1 1441.5,1516C 1268.69,1660.56 1070.02,1717.56 845.5,1687C 641.819,1651.78 479.319,1551.28 358,1385.5C 245.566,1222.41 203.233,1042.41 231,845.5C 266.2,641.805 366.7,479.305 532.5,358C 651.362,275.099 783.362,229.933 928.5,222.5 Z"/></g>
<g><path style="opacity:1" fill="#ffffff" d="M 874.5,335.5 C 908.641,333.817 934.474,347.483 952,376.5C 965.706,407.215 962.373,435.882 942,462.5C 782.167,622.333 622.333,782.167 462.5,942C 428.321,966.895 394.321,966.562 360.5,941C 333.29,912.296 328.457,880.129 346,844.5C 348.422,840.656 351.089,836.99 354,833.5C 513.833,673.667 673.667,513.833 833.5,354C 845.512,344.056 859.179,337.89 874.5,335.5 Z"/></g>
<g><path style="opacity:1" fill="#ffffff" d="M 1212.5,415.5 C 1247.48,414.729 1272.98,429.729 1289,460.5C 1300.91,491.704 1296.25,520.037 1275,545.5C 1032.17,788.333 789.333,1031.17 546.5,1274C 520.919,1295.95 492.253,1300.95 460.5,1289C 431.976,1274.28 416.976,1250.78 415.5,1218.5C 416.398,1197.38 423.898,1179.05 438,1163.5C 679.833,921.667 921.667,679.833 1163.5,438C 1177.46,425.185 1193.8,417.685 1212.5,415.5 Z"/></g>
<g><path style="opacity:1" fill="#ffffff" d="M 1413.5,623.5 C 1452,619.991 1479.83,635.324 1497,669.5C 1508.56,700.578 1503.56,728.578 1482,753.5C 1239.17,996.333 996.333,1239.17 753.5,1482C 719.071,1509.72 684.071,1510.39 648.5,1484C 620.625,1455.01 615.792,1422.51 634,1386.5C 637.308,1381.69 640.808,1377.03 644.5,1372.5C 886.798,1130.87 1128.46,889.202 1369.5,647.5C 1381.95,635.276 1396.62,627.276 1413.5,623.5 Z"/></g>
<g><path style="opacity:1" fill="#ffffff" d="M 1498.5,958.5 C 1535.77,957.039 1562.27,973.039 1578,1006.5C 1587.19,1033.72 1583.53,1059.05 1567,1082.5C 1405.83,1243.67 1244.67,1404.83 1083.5,1566C 1049.74,1589.84 1016.41,1589.17 983.5,1564C 958.594,1538.19 952.428,1508.36 965,1474.5C 969.506,1466.82 974.506,1459.49 980,1452.5C 1137.5,1295 1295,1137.5 1452.5,980C 1465.6,967.919 1480.93,960.752 1498.5,958.5 Z"/></g>
</svg>
